<mxfile host="app.diagrams.net" modified="2023-01-31T08:41:13.648Z" agent="5.0 (Macintosh; Intel Mac OS X 10_15_7) AppleWebKit/537.36 (KHTML, like Gecko) Chrome/106.0.0.0 Safari/537.36" etag="H6IK0Xk0lgeZlkFK_12v" version="20.8.13" type="github">
  <diagram name="第 1 页" id="8uHwBGPxm-JnIIAA2t4t">
    <mxGraphModel dx="1647" dy="736" grid="1" gridSize="10" guides="1" tooltips="1" connect="1" arrows="1" fold="1" page="1" pageScale="1" pageWidth="827" pageHeight="1169" math="0" shadow="0">
      <root>
        <mxCell id="0" />
        <mxCell id="1" parent="0" />
        <mxCell id="Vogl2EOYGTnIDktlsm-0-1" value="" style="endArrow=classic;html=1;rounded=0;" edge="1" parent="1">
          <mxGeometry width="50" height="50" relative="1" as="geometry">
            <mxPoint x="160" y="110" as="sourcePoint" />
            <mxPoint x="1170" y="110" as="targetPoint" />
          </mxGeometry>
        </mxCell>
        <mxCell id="Vogl2EOYGTnIDktlsm-0-15" style="edgeStyle=orthogonalEdgeStyle;rounded=0;orthogonalLoop=1;jettySize=auto;html=1;entryX=0;entryY=0.5;entryDx=0;entryDy=0;" edge="1" parent="1" source="Vogl2EOYGTnIDktlsm-0-16" target="Vogl2EOYGTnIDktlsm-0-20">
          <mxGeometry relative="1" as="geometry" />
        </mxCell>
        <mxCell id="Vogl2EOYGTnIDktlsm-0-16" value="构建镜像" style="rounded=0;whiteSpace=wrap;html=1;" vertex="1" parent="1">
          <mxGeometry x="200" y="110" width="120" height="60" as="geometry" />
        </mxCell>
        <mxCell id="Vogl2EOYGTnIDktlsm-0-19" value="" style="edgeStyle=orthogonalEdgeStyle;rounded=0;orthogonalLoop=1;jettySize=auto;html=1;" edge="1" parent="1" source="Vogl2EOYGTnIDktlsm-0-20" target="Vogl2EOYGTnIDktlsm-0-22">
          <mxGeometry relative="1" as="geometry" />
        </mxCell>
        <mxCell id="Vogl2EOYGTnIDktlsm-0-20" value="滚动升级" style="rounded=0;whiteSpace=wrap;html=1;" vertex="1" parent="1">
          <mxGeometry x="400" y="110" width="120" height="60" as="geometry" />
        </mxCell>
        <mxCell id="Vogl2EOYGTnIDktlsm-0-21" value="" style="edgeStyle=orthogonalEdgeStyle;rounded=0;orthogonalLoop=1;jettySize=auto;html=1;" edge="1" parent="1" source="Vogl2EOYGTnIDktlsm-0-22" target="Vogl2EOYGTnIDktlsm-0-23">
          <mxGeometry relative="1" as="geometry" />
        </mxCell>
        <mxCell id="Vogl2EOYGTnIDktlsm-0-22" value="线上回归" style="rounded=0;whiteSpace=wrap;html=1;" vertex="1" parent="1">
          <mxGeometry x="600" y="110" width="120" height="60" as="geometry" />
        </mxCell>
        <mxCell id="Vogl2EOYGTnIDktlsm-0-25" value="" style="edgeStyle=orthogonalEdgeStyle;rounded=0;orthogonalLoop=1;jettySize=auto;html=1;" edge="1" parent="1" source="Vogl2EOYGTnIDktlsm-0-23" target="Vogl2EOYGTnIDktlsm-0-24">
          <mxGeometry relative="1" as="geometry" />
        </mxCell>
        <mxCell id="Vogl2EOYGTnIDktlsm-0-23" value="合入 master 分支" style="rounded=0;whiteSpace=wrap;html=1;" vertex="1" parent="1">
          <mxGeometry x="800" y="110" width="120" height="60" as="geometry" />
        </mxCell>
        <mxCell id="Vogl2EOYGTnIDktlsm-0-24" value="销毁特性环境" style="rounded=0;whiteSpace=wrap;html=1;" vertex="1" parent="1">
          <mxGeometry x="1000" y="110" width="120" height="60" as="geometry" />
        </mxCell>
      </root>
    </mxGraphModel>
  </diagram>
</mxfile>
